<svg xmlns="http://www.w3.org/2000/svg" viewBox="0 0 620 360" role="img" aria-labelledby="emoji-title emoji-desc" style="width:100%;max-width:620px"><title id="emoji-title">Average openness rating by condition</title><desc id="emoji-desc">Supplement 3.2, substitute 3.5, and control 3.8 on a seven-point scale.</desc><line x1="90" y1="30" x2="90" y2="300" stroke="#222"/><line x1="90" y1="300" x2="570" y2="300" stroke="#222"/><g stroke="#bbb"><line x1="90" y1="240" x2="570" y2="240"/><line x1="90" y1="180" x2="570" y2="180"/><line x1="90" y1="120" x2="570" y2="120"/><line x1="90" y1="60" x2="570" y2="60"/></g><g font-size="15" font-family="Arial"><text x="62" y="305">0</text><text x="62" y="245">1</text><text x="62" y="185">2</text><text x="62" y="125">3</text><text x="62" y="65">4</text><text x="15" y="175" transform="rotate(-90 15 175)">Average rating</text></g><rect x="155" y="108" width="85" height="192" fill="#777"/><rect x="270" y="90" width="85" height="210" fill="#ccc" stroke="#555"/><rect x="385" y="72" width="85" height="228" fill="#111"/><g font-size="15" font-family="Arial" text-anchor="middle"><text x="197" y="100">3.2</text><text x="312" y="82">3.5</text><text x="427" y="64">3.8</text><text x="197" y="325">Supplement</text><text x="312" y="325">Substitute</text><text x="427" y="325">Control</text></g></svg>
