<?xml version="1.0" encoding="UTF-8"?>
<svg id="Layer_1" xmlns="http://www.w3.org/2000/svg" width="5.25in" height="4.27in" version="1.1" xmlns:xlink="http://www.w3.org/1999/xlink" viewBox="0 0 378.32 307.56"><defs><style type="">
      .cls-1 {
        clip-path: url(#clippath-45);
      }

      .cls-2 {
        stroke-width: .68px;
      }

      .cls-2, .cls-3, .cls-4, .cls-5, .cls-6 {
        fill: none;
      }

      .cls-2, .cls-5, .cls-6 {
        stroke: #000;
        stroke-linejoin: round;
      }

      .cls-7 {
        clip-path: url(#clippath-20);
      }

      .cls-8 {
        clip-path: url(#clippath-11);
      }

      .cls-9 {
        clip-path: url(#clippath-16);
      }

      .cls-10 {
        font-family: TimesNewRomanPSMT, 'Times New Roman';
        font-size: 10.83px;
      }

      .cls-10, .cls-11, .cls-12 {
        fill: #000;
      }

      .cls-13 {
        clip-path: url(#clippath-33);
      }

      .cls-11, .cls-14, .cls-15, .cls-3, .cls-4, .cls-12, .cls-16, .cls-17 {
        stroke-width: 0px;
      }

      .cls-18 {
        clip-path: url(#clippath-41);
      }

      .cls-19 {
        clip-path: url(#clippath-32);
      }

      .cls-14, .cls-15, .cls-12 {
        fill-rule: evenodd;
      }

      .cls-14, .cls-17 {
        fill: #a5a4a4;
      }

      .cls-20 {
        clip-path: url(#clippath-2);
      }

      .cls-21 {
        clip-path: url(#clippath-13);
      }

      .cls-15, .cls-16 {
        fill: #dad9d9;
      }

      .cls-22 {
        clip-path: url(#clippath-37);
      }

      .cls-23 {
        clip-path: url(#clippath-25);
      }

      .cls-24 {
        clip-path: url(#clippath-15);
      }

      .cls-25 {
        clip-path: url(#clippath-6);
      }

      .cls-26 {
        clip-path: url(#clippath-40);
      }

      .cls-27 {
        clip-path: url(#clippath-26);
      }

      .cls-28 {
        clip-path: url(#clippath-7);
      }

      .cls-29 {
        clip-path: url(#clippath-21);
      }

      .cls-30 {
        clip-path: url(#clippath-34);
      }

      .cls-31 {
        clip-path: url(#clippath-1);
      }

      .cls-32 {
        clip-path: url(#clippath-4);
      }

      .cls-33 {
        clip-path: url(#clippath-38);
      }

      .cls-4 {
        clip-rule: evenodd;
      }

      .cls-34 {
        clip-path: url(#clippath-36);
      }

      .cls-35 {
        clip-path: url(#clippath-27);
      }

      .cls-36 {
        clip-path: url(#clippath-44);
      }

      .cls-37 {
        clip-path: url(#clippath-12);
      }

      .cls-38 {
        clip-path: url(#clippath-24);
      }

      .cls-39 {
        clip-path: url(#clippath-30);
      }

      .cls-40 {
        clip-path: url(#clippath-22);
      }

      .cls-41 {
        clip-path: url(#clippath-9);
      }

      .cls-42 {
        clip-path: url(#clippath);
      }

      .cls-5 {
        stroke-width: .23px;
      }

      .cls-43 {
        clip-path: url(#clippath-39);
      }

      .cls-44 {
        clip-path: url(#clippath-19);
      }

      .cls-45 {
        clip-path: url(#clippath-31);
      }

      .cls-46 {
        clip-path: url(#clippath-3);
      }

      .cls-47 {
        clip-path: url(#clippath-43);
      }

      .cls-48 {
        clip-path: url(#clippath-8);
      }

      .cls-49 {
        clip-path: url(#clippath-29);
      }

      .cls-50 {
        clip-path: url(#clippath-18);
      }

      .cls-51 {
        clip-path: url(#clippath-14);
      }

      .cls-52 {
        clip-path: url(#clippath-17);
      }

      .cls-53 {
        clip-path: url(#clippath-5);
      }

      .cls-54 {
        clip-path: url(#clippath-42);
      }

      .cls-55 {
        clip-path: url(#clippath-10);
      }

      .cls-56 {
        clip-path: url(#clippath-23);
      }

      .cls-6 {
        stroke-width: .45px;
      }

      .cls-57 {
        clip-path: url(#clippath-28);
      }

      .cls-58 {
        clip-path: url(#clippath-35);
      }
    </style><clipPath id="clippath"><polygon class="cls-4" points="0 315.55 378.32 315.55 378.32 -6.11 0 -6.11 0 315.55 0 315.55"/></clipPath><clipPath id="clippath-1"><polygon class="cls-4" points="0 315.55 378.32 315.55 378.32 -6.11 0 -6.11 0 315.55 0 315.55"/></clipPath><clipPath id="clippath-2"><polygon class="cls-4" points="46.7 216 366.81 216 366.81 33.17 46.7 33.17 46.7 216 46.7 216"/></clipPath><clipPath id="clippath-3"><polygon class="cls-4" points="46.7 216 366.81 216 366.81 33.17 46.7 33.17 46.7 216 46.7 216"/></clipPath><clipPath id="clippath-4"><polygon class="cls-4" points="46.7 216 366.81 216 366.81 33.17 46.7 33.17 46.7 216 46.7 216"/></clipPath><clipPath id="clippath-5"><polygon class="cls-4" points="0 315.55 378.32 315.55 378.32 -6.11 0 -6.11 0 315.55 0 315.55"/></clipPath><clipPath id="clippath-6"><polygon class="cls-4" points="0 315.55 378.32 315.55 378.32 -6.11 0 -6.11 0 315.55 0 315.55"/></clipPath><clipPath id="clippath-7"><polygon class="cls-4" points="0 315.55 378.32 315.55 378.32 -6.11 0 -6.11 0 315.55 0 315.55"/></clipPath><clipPath id="clippath-8"><polygon class="cls-4" points="0 315.55 378.32 315.55 378.32 -6.11 0 -6.11 0 315.55 0 315.55"/></clipPath><clipPath id="clippath-9"><rect class="cls-3" x="0" y="-6.11" width="378.32" height="321.65"/></clipPath><clipPath id="clippath-10"><polygon class="cls-4" points="0 315.55 378.32 315.55 378.32 -6.11 0 -6.11 0 315.55 0 315.55"/></clipPath><clipPath id="clippath-11"><rect class="cls-3" x="0" y="-6.11" width="378.32" height="321.65"/></clipPath><clipPath id="clippath-12"><polygon class="cls-4" points="0 315.55 378.32 315.55 378.32 -6.11 0 -6.11 0 315.55 0 315.55"/></clipPath><clipPath id="clippath-13"><rect class="cls-3" x="0" y="-6.11" width="378.32" height="321.65"/></clipPath><clipPath id="clippath-14"><polygon class="cls-4" points="0 315.55 378.32 315.55 378.32 -6.11 0 -6.11 0 315.55 0 315.55"/></clipPath><clipPath id="clippath-15"><rect class="cls-3" x="0" y="-6.11" width="378.32" height="321.65"/></clipPath><clipPath id="clippath-16"><polygon class="cls-4" points="0 315.55 378.32 315.55 378.32 -6.11 0 -6.11 0 315.55 0 315.55"/></clipPath><clipPath id="clippath-17"><rect class="cls-3" x="0" y="-6.11" width="378.32" height="321.65"/></clipPath><clipPath id="clippath-18"><polygon class="cls-4" points="0 315.55 378.32 315.55 378.32 -6.11 0 -6.11 0 315.55 0 315.55"/></clipPath><clipPath id="clippath-19"><rect class="cls-3" x="0" y="-6.11" width="378.32" height="321.65"/></clipPath><clipPath id="clippath-20"><polygon class="cls-4" points="0 315.55 378.32 315.55 378.32 -6.11 0 -6.11 0 315.55 0 315.55"/></clipPath><clipPath id="clippath-21"><rect class="cls-3" x="0" y="-6.11" width="378.32" height="321.65"/></clipPath><clipPath id="clippath-22"><polygon class="cls-4" points="0 315.55 378.32 315.55 378.32 -6.11 0 -6.11 0 315.55 0 315.55"/></clipPath><clipPath id="clippath-23"><rect class="cls-3" x="0" y="-6.11" width="378.32" height="321.65"/></clipPath><clipPath id="clippath-24"><polygon class="cls-4" points="0 315.55 378.32 315.55 378.32 -6.11 0 -6.11 0 315.55 0 315.55"/></clipPath><clipPath id="clippath-25"><rect class="cls-3" x="0" y="-6.11" width="378.32" height="321.65"/></clipPath><clipPath id="clippath-26"><polygon class="cls-4" points="0 315.55 378.32 315.55 378.32 -6.11 0 -6.11 0 315.55 0 315.55"/></clipPath><clipPath id="clippath-27"><rect class="cls-3" x="0" y="-6.11" width="378.32" height="321.65"/></clipPath><clipPath id="clippath-28"><polygon class="cls-4" points="0 315.55 378.32 315.55 378.32 -6.11 0 -6.11 0 315.55 0 315.55"/></clipPath><clipPath id="clippath-29"><rect class="cls-3" x="0" y="-6.11" width="378.32" height="321.65"/></clipPath><clipPath id="clippath-30"><polygon class="cls-4" points="0 315.55 378.32 315.55 378.32 -6.11 0 -6.11 0 315.55 0 315.55"/></clipPath><clipPath id="clippath-31"><rect class="cls-3" x="0" y="-6.11" width="378.32" height="321.65"/></clipPath><clipPath id="clippath-32"><polygon class="cls-4" points="0 315.55 378.32 315.55 378.32 -6.11 0 -6.11 0 315.55 0 315.55"/></clipPath><clipPath id="clippath-33"><rect class="cls-3" x="0" y="-6.11" width="378.32" height="321.65"/></clipPath><clipPath id="clippath-34"><polygon class="cls-4" points="0 315.55 378.32 315.55 378.32 -6.11 0 -6.11 0 315.55 0 315.55"/></clipPath><clipPath id="clippath-35"><rect class="cls-3" x="0" y="-6.11" width="378.32" height="321.65"/></clipPath><clipPath id="clippath-36"><polygon class="cls-4" points="0 315.55 378.32 315.55 378.32 -6.11 0 -6.11 0 315.55 0 315.55"/></clipPath><clipPath id="clippath-37"><polygon class="cls-4" points="0 315.55 378.32 315.55 378.32 -6.11 0 -6.11 0 315.55 0 315.55"/></clipPath><clipPath id="clippath-38"><polygon class="cls-4" points="0 315.55 378.32 315.55 378.32 -6.11 0 -6.11 0 315.55 0 315.55"/></clipPath><clipPath id="clippath-39"><rect class="cls-3" x="0" y="-6.11" width="378.32" height="321.65"/></clipPath><clipPath id="clippath-40"><polygon class="cls-4" points="0 315.55 378.32 315.55 378.32 -6.11 0 -6.11 0 315.55 0 315.55"/></clipPath><clipPath id="clippath-41"><polygon class="cls-4" points="0 315.55 378.32 315.55 378.32 -6.11 0 -6.11 0 315.55 0 315.55"/></clipPath><clipPath id="clippath-42"><rect class="cls-3" x="0" y="-6.11" width="378.32" height="321.65"/></clipPath><clipPath id="clippath-43"><polygon class="cls-4" points="0 315.55 378.32 315.55 378.32 -6.11 0 -6.11 0 315.55 0 315.55"/></clipPath><clipPath id="clippath-44"><polygon class="cls-4" points="0 315.55 378.32 315.55 378.32 -6.11 0 -6.11 0 315.55 0 315.55"/></clipPath><clipPath id="clippath-45"><rect class="cls-3" x="0" y="-6.11" width="378.32" height="321.65"/></clipPath></defs><g class="cls-42"><path class="cls-6" d="M47.04,185.19h319.44M47.04,154.72h319.44M47.04,124.25h319.44M47.04,93.77h319.44M47.04,63.98h319.44M47.04,33.51h319.44"/></g><g class="cls-31"><polygon class="cls-6" points="47.04 33.51 366.47 33.51 366.47 215.66 47.04 215.66 47.04 33.51 47.04 33.51"/></g><g class="cls-20"><path class="cls-11" d="M64.97,133.39h23.69v81.94h-23.69v-81.94h0ZM171.22,136.1h23.69v79.23h-23.69v-79.23h0ZM278.15,146.25h23.69v69.07h-23.69v-69.07h0Z"/></g><g class="cls-46"><path class="cls-16" d="M88.32,189.25h23.69v26.41h-23.69v-26.41h0ZM195.25,141.18h23.69v74.49h-23.69v-74.49h0ZM301.5,131.7h23.69v83.97h-23.69v-83.97h0Z"/><path class="cls-5" d="M88.32,189.25h23.69v26.41h-23.69v-26.41h0ZM195.25,141.18h23.69v74.49h-23.69v-74.49h0ZM301.5,131.7h23.69v83.97h-23.69v-83.97h0Z"/></g><g class="cls-32"><path class="cls-17" d="M112.34,56.87h23.69v158.46h-23.69V56.87h0ZM218.6,121.88h23.69v93.45h-23.69v-93.45h0ZM325.53,168.6h23.69v46.72h-23.69v-46.72h0Z"/></g><g class="cls-53"><line class="cls-2" x1="47.04" y1="215.66" x2="47.04" y2="33.51"/></g><g class="cls-25"><path class="cls-2" d="M43.65,215.66h3.38M43.65,185.19h3.38M43.65,154.72h3.38M43.65,124.25h3.38M43.65,93.77h3.38M43.65,63.98h3.38M43.65,33.51h3.38"/></g><g class="cls-28"><line class="cls-2" x1="47.04" y1="215.66" x2="366.47" y2="215.66"/></g><g class="cls-48"><g class="cls-41"><text class="cls-10" transform="translate(9.89 218.56)"><tspan x="0" y="0">0.00%</tspan></text></g></g><g class="cls-55"><g class="cls-8"><text class="cls-10" transform="translate(4.47 188.24)"><tspan x="0" y="0">10.00%</tspan></text></g></g><g class="cls-37"><g class="cls-21"><text class="cls-10" transform="translate(4.47 157.92)"><tspan x="0" y="0">20.00%</tspan></text></g></g><g class="cls-51"><g class="cls-24"><text class="cls-10" transform="translate(4.47 127.59)"><tspan x="0" y="0">30.00%</tspan></text></g></g><g class="cls-9"><g class="cls-52"><text class="cls-10" transform="translate(4.47 97.27)"><tspan x="0" y="0">40.00%</tspan></text></g></g><g class="cls-50"><g class="cls-44"><text class="cls-10" transform="translate(4.47 66.95)"><tspan x="0" y="0">50.00%</tspan></text></g></g><g class="cls-7"><g class="cls-29"><text class="cls-10" transform="translate(4.47 36.64)"><tspan x="0" y="0">60.00%</tspan></text></g></g><g class="cls-40"><g class="cls-56"><text class="cls-10" transform="translate(63.05 231.29)"><tspan x="0" y="0">within same U.S.</tspan></text></g></g><g class="cls-38"><g class="cls-23"><text class="cls-10" transform="translate(85.61 243.75)"><tspan x="0" y="0">county</tspan></text></g></g><g class="cls-27"><g class="cls-35"><text class="cls-10" transform="translate(161.66 231.29)"><tspan x="0" y="0">from a different U.S.</tspan></text></g></g><g class="cls-57"><g class="cls-49"><text class="cls-10" transform="translate(192.18 243.75)"><tspan x="0" y="0">county</tspan></text></g></g><g class="cls-39"><g class="cls-45"><text class="cls-10" transform="translate(264.32 231.29)"><tspan x="0" y="0">from a foreign country</tspan></text></g></g><g class="cls-19"><g class="cls-13"><text class="cls-10" transform="translate(184.04 269.06)"><tspan x="0" y="0">Move type</tspan></text></g></g><g class="cls-30"><g class="cls-58"><text class="cls-10" transform="translate(86.58 17.18)"><tspan x="0" y="0">Primary Reason Cited for Moving by Move Type, 2022</tspan></text></g></g><g class="cls-34"><polygon class="cls-2" points="6.43 282.7 367.83 282.7 367.83 300.99 6.43 300.99 6.43 282.7 6.43 282.7"/></g><g class="cls-22"><polygon class="cls-12" points="14.89 289.14 20.3 289.14 20.3 294.55 14.89 294.55 14.89 289.14 14.89 289.14"/></g><g class="cls-33"><g class="cls-43"><text class="cls-10" transform="translate(22.79 294.84)"><tspan x="0" y="0">family-related reason</tspan></text></g></g><g class="cls-26"><polygon class="cls-15" points="123.51 288.8 128.93 288.8 128.93 294.22 123.51 294.22 123.51 288.8 123.51 288.8"/><polygon class="cls-5" points="123.51 288.8 128.93 288.8 128.93 294.22 123.51 294.22 123.51 288.8 123.51 288.8"/></g><g class="cls-18"><g class="cls-54"><text class="cls-10" transform="translate(130.96 294.84)"><tspan x="0" y="0">employment-related reason</tspan></text></g></g><g class="cls-47"><polygon class="cls-14" points="257.17 289.14 262.59 289.14 262.59 294.55 257.17 294.55 257.17 289.14 257.17 289.14"/></g><g class="cls-36"><g class="cls-1"><text class="cls-10" transform="translate(265 294.84)"><tspan x="0" y="0">housing-related reason</tspan></text></g></g></svg>